{
  "source": "C:\\Users\\Peter\\Desktop\\stuff\\MIUN\\quantitative_research\\video_compression\\videos\\BVI-HD\\ParkPlay_1920x1080_50fps.mp4",
  "output": "C:\\Users\\Peter\\Desktop\\stuff\\MIUN\\quantitative_research\\video_compression\\compressed_videos\\BVI-HD\\h264\\12\\ParkPlay_1920x1080_50fps_h264.mp4",
  "codec": "h264",
  "ok": "Input #0, mov,mp4,m4a,3gp,3g2,mj2, from 'C:\\Users\\Peter\\Desktop\\stuff\\MIUN\\quantitative_research\\video_compression\\videos\\BVI-HD\\ParkPlay_1920x1080_50fps.mp4':\n  Metadata:\n    major_brand     : isom\n    minor_version   : 512\n    compatible_brands: isomiso2avc1mp41\n    encoder         : Lavf54.28.101\n  Duration: 00:00:05.00, start: 0.000000, bitrate: 620563 kb/s\n  Stream #0:0[0x1](und): Video: h264 (High 4:4:4 Predictive) (avc1 / 0x31637661), yuv420p(progressive), 1920x1080, 620558 kb/s, 50 fps, 50 tbr, 50 tbn (default)\n    Metadata:\n      handler_name    : VideoHandler\n      vendor_id       : [0][0][0][0]\n[out#0/mp4 @ 000002031cce7280] Codec AVOption b:a (set bitrate (in bits/s)) has not been used for any stream. The most likely reason is either wrong type (e.g. a video option with no video streams) or that it is a private option of some decoder which was not actually used for any stream.\nStream mapping:\n  Stream #0:0 -> #0:0 (h264 (native) -> h264 (libx264))\nPress [q] to stop, [?] for help\n[libx264 @ 000002031d7e0700] using cpu capabilities: MMX2 SSE2Fast SSSE3 SSE4.2 AVX FMA3 BMI2 AVX2\n[libx264 @ 000002031d7e0700] profile High, level 5.0, 4:2:0, 8-bit\n[libx264 @ 000002031d7e0700] 264 - core 165 r3222 b35605a - H.264/MPEG-4 AVC codec - Copyleft 2003-2025 - http://www.videolan.org/x264.html - options: cabac=1 ref=5 deblock=1:0:0 analyse=0x3:0x113 me=hex subme=8 psy=1 psy_rd=1.00:0.00 mixed_ref=1 me_range=16 chroma_me=1 trellis=2 8x8dct=1 cqm=0 deadzone=21,11 fast_pskip=1 chroma_qp_offset=-2 threads=18 lookahead_threads=3 sliced_threads=0 nr=0 decimate=1 interlaced=0 bluray_compat=0 constrained_intra=0 bframes=3 b_pyramid=2 b_adapt=1 b_bias=0 direct=3 weightb=1 open_gop=0 weightp=2 keyint=250 keyint_min=25 scenecut=40 intra_refresh=0 rc_lookahead=50 rc=cbr mbtree=1 bitrate=12000 ratetol=1.0 qcomp=0.60 qpmin=0 qpmax=69 qpstep=4 vbv_maxrate=12000 vbv_bufsize=12000 nal_hrd=none filler=0 ip_ratio=1.40 aq=1:1.00\nOutput #0, mp4, to 'C:\\Users\\Peter\\Desktop\\stuff\\MIUN\\quantitative_research\\video_compression\\compressed_videos\\BVI-HD\\h264\\12\\ParkPlay_1920x1080_50fps_h264.mp4':\n  Metadata:\n    major_brand     : isom\n    minor_version   : 512\n    compatible_brands: isomiso2avc1mp41\n    encoder         : Lavf62.3.100\n  Stream #0:0(und): Video: h264 (avc1 / 0x31637661), yuv420p(tv, progressive), 1920x1080, q=2-31, 12000 kb/s, 50 fps, 12800 tbn (default)\n    Metadata:\n      encoder         : Lavc62.11.100 libx264\n      handler_name    : VideoHandler\n      vendor_id       : [0][0][0][0]\n    Side data:\n      cpb: bitrate max/min/avg: 12000000/0/12000000 buffer size: 12000000 vbv_delay: N/A\nframe=    0 fps=0.0 q=0.0 size=       0KiB time=N/A bitrate=N/A speed=N/A elapsed=0:00:00.53    \nframe=    0 fps=0.0 q=0.0 size=       0KiB time=N/A bitrate=N/A speed=N/A elapsed=0:00:01.13    \nframe=    0 fps=0.0 q=0.0 size=       0KiB time=N/A bitrate=N/A speed=N/A elapsed=0:00:01.73    \nframe=    0 fps=0.0 q=0.0 size=       0KiB time=N/A bitrate=N/A speed=N/A elapsed=0:00:02.38    \nframe=    5 fps=1.7 q=33.0 size=     256KiB time=00:00:00.06 bitrate=34958.9kbits/s speed=0.0205x elapsed=0:00:02.92    \nframe=   21 fps=6.0 q=32.0 size=     512KiB time=00:00:00.34 bitrate=12337.3kbits/s speed=0.0978x elapsed=0:00:03.47    \nframe=   29 fps=7.1 q=32.0 size=     768KiB time=00:00:00.54 bitrate=11651.6kbits/s speed=0.132x elapsed=0:00:04.07    \nframe=   41 fps=8.9 q=32.0 size=    1024KiB time=00:00:00.78 bitrate=10755.1kbits/s speed=0.169x elapsed=0:00:04.60    \nframe=   53 fps= 10 q=32.0 size=    1280KiB time=00:00:01.02 bitrate=10280.5kbits/s speed=0.197x elapsed=0:00:05.18    \nframe=   58 fps= 10 q=32.0 size=    1536KiB time=00:00:01.12 bitrate=11235.1kbits/s speed=0.195x elapsed=0:00:05.74    \nframe=   73 fps= 12 q=32.0 size=    1792KiB time=00:00:01.42 bitrate=10338.3kbits/s speed=0.227x elapsed=0:00:06.25    \nframe=   85 fps= 13 q=32.0 size=    2304KiB time=00:00:01.58 bitrate=11946.0kbits/s speed=0.233x elapsed=0:00:06.78    \nframe=   97 fps= 13 q=32.0 size=    2560KiB time=00:00:01.90 bitrate=11037.8kbits/s speed=0.255x elapsed=0:00:07.45    \nframe=  115 fps= 14 q=33.0 size=    3072KiB time=00:00:02.20 bitrate=11439.2kbits/s speed=0.275x elapsed=0:00:07.98    \nframe=  121 fps= 14 q=33.0 size=    3328KiB time=00:00:02.38 bitrate=11455.2kbits/s speed=0.276x elapsed=0:00:08.61    \nframe=  137 fps= 15 q=33.0 size=    3840KiB time=00:00:02.62 bitrate=12006.7kbits/s speed=0.285x elapsed=0:00:09.17    \nframe=  149 fps= 15 q=33.0 size=    4096KiB time=00:00:02.94 bitrate=11413.2kbits/s speed=0.301x elapsed=0:00:09.78    \nframe=  165 fps= 16 q=33.0 size=    4608KiB time=00:00:03.26 bitrate=11579.5kbits/s speed=0.315x elapsed=0:00:10.34    \nframe=  181 fps= 17 q=33.0 size=    5120KiB time=00:00:03.58 bitrate=11716.0kbits/s speed=0.33x elapsed=0:00:10.86    \nframe=  197 fps= 17 q=33.0 size=    5632KiB time=00:00:03.90 bitrate=11830.2kbits/s speed=0.342x elapsed=0:00:11.39    \nframe=  209 fps= 18 q=33.0 size=    6144KiB time=00:00:04.14 bitrate=12157.5kbits/s speed=0.348x elapsed=0:00:11.90    \nframe=  218 fps= 18 q=33.0 size=    6400KiB time=00:00:04.30 bitrate=12192.8kbits/s speed=0.346x elapsed=0:00:12.42    \nframe=  237 fps= 18 q=-1.0 size=    6912KiB time=00:00:04.70 bitrate=12047.6kbits/s speed=0.363x elapsed=0:00:12.95    \n[mp4 @ 000002031cce73c0] Starting second pass: moving the moov atom to the beginning of the file\n[out#0/mp4 @ 000002031cce7280] video:7367KiB audio:0KiB subtitle:0KiB other streams:0KiB global headers:0KiB muxing overhead: 0.052640%\nframe=  250 fps= 19 q=-1.0 Lsize=    7371KiB time=00:00:04.96 bitrate=12173.7kbits/s speed=0.376x elapsed=0:00:13.19    \n[libx264 @ 000002031d7e0700] frame I:1     Avg QP:28.05  size:178695\n[libx264 @ 000002031d7e0700] frame P:63    Avg QP:30.76  size: 71364\n[libx264 @ 000002031d7e0700] frame B:186   Avg QP:34.02  size: 15421\n[libx264 @ 000002031d7e0700] consecutive B-frames:  0.8%  0.0%  0.0% 99.2%\n[libx264 @ 000002031d7e0700] mb I  I16..4: 21.3% 68.1% 10.7%\n[libx264 @ 000002031d7e0700] mb P  I16..4:  1.2% 10.6%  1.3%  P16..4: 41.1% 22.1% 11.3%  0.0%  0.0%    skip:12.4%\n[libx264 @ 000002031d7e0700] mb B  I16..4:  0.1%  0.6%  0.0%  B16..8: 52.5%  6.6%  1.7%  direct: 2.5%  skip:35.9%  L0:42.1% L1:51.7% BI: 6.2%\n[libx264 @ 000002031d7e0700] 8x8 transform intra:80.1% inter:59.6%\n[libx264 @ 000002031d7e0700] direct mvs  spatial:94.6% temporal:5.4%\n[libx264 @ 000002031d7e0700] coded y,uvDC,uvAC intra: 70.9% 69.5% 31.3% inter: 15.1% 11.7% 1.3%\n[libx264 @ 000002031d7e0700] i16 v,h,dc,p:  8% 17%  2% 73%\n[libx264 @ 000002031d7e0700] i8 v,h,dc,ddl,ddr,vr,hd,vl,hu:  5%  5%  3% 13% 19% 14% 18% 11% 13%\n[libx264 @ 000002031d7e0700] i4 v,h,dc,ddl,ddr,vr,hd,vl,hu:  4%  4%  3% 12% 19% 14% 19% 11% 14%\n[libx264 @ 000002031d7e0700] i8c dc,h,v,p: 39% 19% 16% 26%\n[libx264 @ 000002031d7e0700] Weighted P-Frames: Y:1.6% UV:1.6%\n[libx264 @ 000002031d7e0700] ref P L0: 60.8% 16.7% 13.1%  4.6%  4.7%  0.1%\n[libx264 @ 000002031d7e0700] ref B L0: 94.1%  4.2%  1.2%  0.4%\n[libx264 @ 000002031d7e0700] ref B L1: 98.5%  1.5%\n[libx264 @ 000002031d7e0700] kb/s:12068.75\n",
  "seconds": 13.556280374526978,
  "probe_out": {}
}